<?xml version="1.0" standalone="no"?>
<!DOCTYPE svg PUBLIC "-//W3C//DTD SVG 20010904//EN"
 "http://www.w3.org/TR/2001/REC-SVG-20010904/DTD/svg10.dtd">
<svg version="1.0" xmlns="http://www.w3.org/2000/svg"
 width="500.000000pt" height="500.000000pt" viewBox="0 0 500.000000 500.000000"
 preserveAspectRatio="xMidYMid meet">

<g transform="translate(0.000000,500.000000) scale(0.100000,-0.100000)"
fill="#000000" stroke="none">
<path d="M2120 3939 c-47 -5 -143 -20 -214 -34 -461 -93 -723 -312 -822 -690
-24 -89 -27 -119 -28 -280 -1 -143 3 -196 18 -260 87 -375 331 -603 764 -716
201 -52 320 -63 697 -63 l340 -1 3 187 2 186 -387 5 c-413 5 -442 8 -586 60
-192 70 -322 208 -373 397 -22 81 -25 281 -5 360 55 225 226 387 473 449 91
24 239 41 343 41 l75 0 0 -230 0 -230 230 0 230 0 -2 413 -3 412 -335 1 c-184
1 -373 -2 -420 -7z m660 -399 l0 -330 -129 0 -130 0 -3 201 -3 201 -29 23
c-37 30 -111 37 -259 25 -489 -40 -747 -242 -808 -633 -14 -90 -6 -218 21
-321 69 -263 252 -420 574 -493 103 -23 135 -26 439 -30 l327 -5 0 -100 0
-100 -327 5 c-275 4 -347 8 -443 26 -575 106 -860 406 -860 906 0 591 346 895
1075 945 61 4 210 8 333 9 l222 1 0 -330z"/>
<path d="M2424 2907 c-2 -7 -3 -91 -2 -187 l3 -175 383 -3 c210 -1 382 -5 382
-7 0 -3 -92 -204 -205 -447 -113 -242 -205 -445 -205 -449 0 -5 109 -9 243 -9
l242 0 294 630 c166 357 291 636 287 645 -5 13 -90 15 -711 15 -566 0 -707 -3
-711 -13z m1288 -72 c3 -3 -111 -254 -253 -558 l-258 -552 -140 -3 -140 -3 69
148 c37 82 120 261 184 398 64 138 116 258 116 267 0 30 -21 65 -47 77 -16 7
-139 11 -373 11 l-350 0 0 110 0 110 593 0 c327 0 596 -2 599 -5z"/>
<path d="M2671 1418 c-5 -13 -44 -95 -86 -183 -70 -147 -75 -160 -59 -172 24
-18 1370 -19 1409 -1 l25 11 0 170 c0 150 -2 171 -17 183 -15 11 -139 13 -641
14 l-622 0 -9 -22z m1179 -173 l0 -105 -601 0 c-350 0 -599 4 -597 9 2 5 23
52 48 105 l45 95 553 1 552 0 0 -105z"/>
</g>
</svg>
